<svg width="12" height="12" viewBox="0 0 12 12" fill="none" xmlns="http://www.w3.org/2000/svg">
<path d="M0.146021 0.853899C0.0995332 0.807411 0.0626571 0.752222 0.037498 0.691483C0.0123389 0.630743 -0.000610351 0.565643 -0.000610352 0.499899C-0.000610352 0.434155 0.0123389 0.369055 0.037498 0.308316C0.0626571 0.247576 0.0995332 0.192387 0.146021 0.145899C0.192509 0.0994111 0.247698 0.062535 0.308438 0.0373759C0.369177 0.0122168 0.434277 -0.000732422 0.500021 -0.000732422C0.565765 -0.000732421 0.630865 0.0122168 0.691605 0.0373759C0.752344 0.062535 0.807533 0.0994111 0.854021 0.145899L6.00002 5.2929L11.146 0.145899C11.1925 0.0994111 11.2477 0.062535 11.3084 0.0373759C11.3692 0.0122168 11.4343 -0.000732422 11.5 -0.000732422C11.5658 -0.000732422 11.6309 0.0122168 11.6916 0.0373759C11.7523 0.062535 11.8075 0.0994111 11.854 0.145899C11.9005 0.192387 11.9374 0.247576 11.9625 0.308316C11.9877 0.369055 12.0007 0.434155 12.0007 0.499899C12.0007 0.565643 11.9877 0.630743 11.9625 0.691483C11.9374 0.752222 11.9005 0.807411 11.854 0.853899L6.70702 5.9999L11.854 11.1459C11.9005 11.1924 11.9374 11.2476 11.9625 11.3083C11.9877 11.3691 12.0007 11.4342 12.0007 11.4999C12.0007 11.5656 11.9877 11.6307 11.9625 11.6915C11.9374 11.7522 11.9005 11.8074 11.854 11.8539C11.8075 11.9004 11.7523 11.9373 11.6916 11.9624C11.6309 11.9876 11.5658 12.0005 11.5 12.0005C11.4343 12.0005 11.3692 11.9876 11.3084 11.9624C11.2477 11.9373 11.1925 11.9004 11.146 11.8539L6.00002 6.7069L0.854021 11.8539C0.807533 11.9004 0.752344 11.9373 0.691605 11.9624C0.630865 11.9876 0.565765 12.0005 0.500021 12.0005C0.434277 12.0005 0.369177 11.9876 0.308438 11.9624C0.247698 11.9373 0.192509 11.9004 0.146021 11.8539C0.0995332 11.8074 0.0626571 11.7522 0.037498 11.6915C0.0123389 11.6307 -0.000610352 11.5656 -0.000610352 11.4999C-0.000610352 11.4342 0.0123389 11.3691 0.037498 11.3083C0.0626571 11.2476 0.0995332 11.1924 0.146021 11.1459L5.29302 5.9999L0.146021 0.853899Z" fill="white"/>
</svg>
